<svg xmlns="http://www.w3.org/2000/svg" xmlns:xlink="http://www.w3.org/1999/xlink" width="68" height="68" viewBox="0 0 68 68">
  <defs>
    <linearGradient id="linear-gradient" x1="0.06" y1="0.94" x2="0.94" y2="0.06" gradientUnits="objectBoundingBox">
      <stop offset="0" stop-color="#0dada0"/>
      <stop offset="0.998" stop-color="#83e58e"/>
    </linearGradient>
  </defs>
  <g id="组_1546" data-name="组 1546" transform="translate(-842.543 -729.236)">
    <rect id="矩形_1202" data-name="矩形 1202" width="68" height="68" rx="14" transform="translate(842.543 729.236)" fill="url(#linear-gradient)"/>
    <path id="路径_3549" data-name="路径 3549" d="M858.473,759.968h-2.655a4.254,4.254,0,0,0-1.434.2v-5.624h-4.191v17.378h4.189V764.98a1.159,1.159,0,0,1,1.127-1.225h2.45a1.148,1.148,0,0,1,1.148,1.124v7.038h4.177v-7.564c0-3.187-2.141-4.406-4.8-4.406Zm40.173-.021v6.975a1.138,1.138,0,0,1-1.134,1.12h-2.451a1.139,1.139,0,0,1-1.118-1.12v-6.957h-4.177v7.36c0,2.96,1.942,4.6,4.8,4.6h4.111c2.663,0,4.211-1.831,4.211-4.593v-7.36h-4.211l-.035-.021Zm-23.618,6.939a1.135,1.135,0,0,1-1.126,1.134h-2.453a1.14,1.14,0,0,1-1.125-1.131v-6.944H866.14v7.367c0,2.963,1.938,4.606,4.8,4.606h4.086c2.655,0,4.188-1.829,4.188-4.59v-7.366h-4.188Zm7.456,5.018h4.191V754.552h-4.181v17.37l-.012-.018Zm0,0" fill="#fff"/>
  </g>
</svg>
