<svg xmlns="http://www.w3.org/2000/svg" width="64" height="64" viewBox="0 0 64 64">
  <g id="组_1523" data-name="组 1523" transform="translate(-928 -638)">
    <g id="矩形_1196" data-name="矩形 1196" transform="translate(928 638)" fill="#fff" stroke="#d6d7d8" stroke-miterlimit="10" stroke-width="0.4">
      <rect width="64" height="64" rx="13" stroke="none"/>
      <rect x="0.2" y="0.2" width="63.6" height="63.6" rx="12.8" fill="none"/>
    </g>
    <g id="组_1535" data-name="组 1535">
      <path id="路径_3541" data-name="路径 3541" d="M948.417,674.337l-1.447,5.407-5.293.111a20.836,20.836,0,0,1-.15-19.422l4.712.864,2.06,4.681a12.416,12.416,0,0,0,.117,8.358Zm0,0" fill="#fbbb00"/>
      <path id="路径_3542" data-name="路径 3542" d="M980.434,666.114a20.8,20.8,0,0,1-7.415,20.106l-5.935-.3-.832-5.243a12.4,12.4,0,0,0,5.333-6.323H960.463v-8.228h19.979Zm0,0" fill="#518ef8"/>
      <path id="路径_3543" data-name="路径 3543" d="M973.017,686.218a20.8,20.8,0,0,1-31.342-6.363l6.741-5.518a12.37,12.37,0,0,0,17.826,6.333Zm0,0" fill="#28b446"/>
      <path id="路径_3544" data-name="路径 3544" d="M973.274,653.989l-6.738,5.516a12.368,12.368,0,0,0-18.23,6.476l-6.781-5.548a20.8,20.8,0,0,1,31.749-6.444Zm0,0" fill="#f14336"/>
    </g>
  </g>
</svg>
